<?xml version="1.0" standalone="no"?>
<!DOCTYPE svg PUBLIC "-//W3C//DTD SVG 20010904//EN"
 "http://www.w3.org/TR/2001/REC-SVG-20010904/DTD/svg10.dtd">
<svg version="1.0" xmlns="http://www.w3.org/2000/svg"
 width="800.000000pt" height="800.000000pt" viewBox="0 0 800.000000 800.000000"
 preserveAspectRatio="xMidYMid meet">
<metadata>
Created by potrace 1.14, written by Peter Selinger 2001-2017
</metadata>
<g transform="translate(0.000000,800.000000) scale(0.100000,-0.100000)"
fill="#000000" stroke="none">
<path d="M3818 7669 c-26 -4 -53 -11 -60 -15 -7 -5 -17 -9 -23 -10 -9 -2 -51
-21 -243 -110 -40 -19 -77 -34 -82 -34 -6 0 -10 -5 -10 -11 0 -5 -4 -8 -9 -4
-5 3 -17 -2 -25 -11 -9 -8 -16 -13 -16 -10 0 7 -188 -91 -271 -140 -31 -19
-61 -34 -67 -34 -5 0 -15 -7 -22 -15 -7 -8 -16 -13 -20 -10 -4 2 -15 -4 -25
-15 -10 -11 -22 -20 -28 -20 -5 0 -29 -13 -54 -30 -24 -16 -47 -30 -50 -30 -3
0 -32 -18 -64 -40 -33 -22 -59 -38 -59 -35 0 3 -9 -3 -20 -13 -11 -10 -33 -25
-48 -33 -15 -8 -29 -16 -32 -19 -3 -3 -32 -23 -65 -45 -33 -22 -62 -43 -65
-46 -3 -3 -27 -21 -55 -39 -27 -19 -56 -40 -65 -46 -8 -7 -65 -51 -126 -98
-61 -48 -123 -97 -138 -111 -14 -13 -26 -22 -26 -20 0 3 -8 -3 -18 -12 -47
-46 -81 -71 -86 -66 -3 4 -6 -1 -6 -10 0 -10 -3 -17 -7 -17 -8 0 -26 -15 -158
-135 -81 -74 -355 -345 -355 -352 0 -2 -22 -27 -49 -56 -103 -108 -117 -125
-166 -185 -27 -34 -53 -62 -57 -62 -5 0 -8 -5 -8 -11 0 -7 -11 -22 -25 -35
-14 -13 -25 -28 -25 -33 0 -5 -8 -16 -18 -23 -9 -7 -42 -47 -72 -88 -30 -41
-59 -80 -65 -86 -5 -6 -28 -37 -50 -69 -22 -31 -48 -66 -57 -76 -10 -11 -18
-23 -18 -28 0 -4 -11 -20 -25 -35 -13 -14 -22 -26 -19 -26 3 0 -6 -15 -20 -33
-15 -19 -26 -39 -26 -45 0 -7 -4 -12 -9 -12 -5 0 -14 -13 -21 -30 -7 -16 -16
-30 -20 -30 -4 0 -13 -13 -20 -29 -6 -16 -20 -38 -31 -50 -11 -12 -17 -21 -15
-21 3 0 -10 -25 -29 -55 -19 -30 -35 -59 -35 -65 0 -5 -4 -10 -10 -10 -5 0
-10 -6 -10 -14 0 -7 -7 -19 -15 -26 -8 -7 -12 -16 -9 -21 3 -5 0 -9 -5 -9 -6
0 -11 -4 -11 -10 0 -5 -20 -43 -44 -84 -24 -41 -42 -77 -38 -80 3 -3 1 -6 -5
-6 -9 0 -24 -34 -22 -49 0 -2 -3 -7 -8 -10 -5 -3 -31 -51 -58 -106 -27 -55
-52 -102 -55 -105 -3 -3 -6 -12 -8 -20 -2 -8 -15 -40 -29 -70 -119 -259 -138
-325 -105 -387 6 -11 9 -23 7 -25 -3 -3 6 -17 20 -32 13 -14 24 -29 24 -32 0
-8 48 -44 60 -44 6 0 11 -5 11 -12 0 -6 3 -9 6 -6 3 4 29 -4 57 -17 51 -22 87
-37 97 -40 3 0 27 -11 54 -23 27 -12 51 -22 54 -22 3 0 25 -9 49 -21 24 -11
49 -22 55 -23 7 -1 29 -9 48 -18 19 -9 125 -53 235 -98 110 -45 214 -88 230
-95 17 -7 71 -30 120 -50 50 -20 96 -41 102 -47 7 -6 13 -8 13 -5 0 4 28 -6
63 -22 34 -15 64 -28 67 -29 6 -1 44 -16 85 -33 17 -7 32 -13 35 -14 3 -1 28
-12 55 -24 28 -13 55 -24 60 -25 6 -2 21 -8 35 -13 14 -6 27 -10 30 -9 3 0 18
-7 33 -17 15 -9 27 -15 27 -12 0 2 17 -4 39 -15 21 -12 49 -23 61 -25 13 -3
26 -8 29 -12 3 -5 12 -9 19 -11 7 -1 32 -11 55 -21 36 -16 70 -30 87 -36 3 -1
19 -8 35 -15 17 -7 32 -14 35 -15 3 0 14 -6 25 -12 11 -6 22 -11 25 -11 8 -1
52 -18 130 -51 38 -17 70 -27 70 -23 0 4 4 2 8 -4 4 -6 25 -17 47 -26 127 -50
144 -60 132 -80 -7 -10 -17 -18 -24 -18 -7 0 -12 -6 -10 -12 1 -7 -3 -12 -10
-11 -6 2 -15 -6 -18 -17 -3 -10 -15 -22 -26 -25 -10 -4 -18 -9 -16 -13 4 -9
-40 -52 -46 -45 -3 2 -8 -5 -12 -16 -3 -12 -10 -19 -15 -16 -5 3 -11 -4 -15
-14 -3 -11 -15 -23 -26 -26 -10 -4 -17 -11 -14 -16 4 -5 1 -9 -5 -9 -6 0 -8
-4 -5 -10 3 -5 0 -7 -9 -4 -9 3 -17 -2 -21 -15 -3 -11 -15 -23 -25 -26 -11 -3
-19 -12 -17 -18 1 -7 -4 -11 -10 -10 -7 2 -13 -4 -13 -12 0 -8 -6 -15 -14 -15
-7 0 -16 -9 -19 -21 -3 -12 -10 -18 -16 -14 -6 3 -11 -1 -11 -10 0 -9 -4 -14
-9 -10 -5 3 -12 -4 -16 -15 -3 -11 -12 -19 -18 -17 -7 1 -11 -4 -9 -11 1 -8
-7 -16 -18 -19 -11 -3 -20 -12 -20 -19 0 -8 -7 -14 -15 -14 -8 0 -14 -6 -12
-12 1 -7 -3 -12 -10 -11 -6 2 -15 -6 -18 -17 -3 -10 -15 -22 -26 -25 -13 -4
-18 -12 -15 -21 3 -9 1 -12 -4 -9 -6 3 -10 1 -10 -5 0 -6 -4 -9 -9 -5 -5 3
-12 -4 -16 -14 -3 -11 -15 -23 -26 -26 -12 -4 -18 -13 -15 -21 3 -7 2 -13 -2
-13 -17 3 -35 -1 -29 -7 8 -8 -25 -44 -35 -38 -4 3 -8 -2 -8 -10 0 -9 -7 -16
-15 -16 -9 0 -21 -11 -27 -25 -6 -13 -20 -27 -30 -31 -11 -3 -17 -12 -14 -20
3 -7 2 -13 -2 -13 -17 3 -35 -2 -29 -7 7 -7 -19 -36 -28 -32 -4 2 -12 -7 -18
-19 -7 -12 -16 -23 -22 -25 -5 -2 -9 -7 -7 -11 1 -5 -7 -11 -18 -14 -11 -3
-20 -12 -20 -19 0 -8 -7 -14 -15 -14 -8 0 -14 -6 -12 -12 1 -7 -4 -12 -10 -11
-7 2 -13 -1 -13 -5 0 -13 -36 -53 -42 -47 -2 3 -11 -6 -18 -20 -7 -14 -20 -25
-27 -25 -8 0 -12 -4 -8 -9 3 -5 -4 -13 -16 -16 -11 -4 -18 -9 -15 -12 7 -7
-33 -43 -46 -43 -5 0 -7 -4 -3 -9 3 -5 -4 -13 -16 -16 -11 -4 -18 -9 -15 -12
6 -7 -32 -43 -46 -43 -4 0 -7 -6 -5 -12 1 -7 -3 -12 -10 -11 -6 2 -15 -6 -18
-17 -4 -11 -11 -18 -16 -15 -5 4 -9 -1 -9 -9 0 -9 -7 -16 -15 -16 -8 0 -14 -6
-12 -12 1 -7 -4 -12 -10 -11 -7 2 -13 -1 -13 -5 0 -5 -7 -17 -16 -28 -8 -10
-13 -12 -9 -4 7 16 -7 0 -34 -39 -8 -11 -18 -18 -22 -15 -4 2 -10 -5 -14 -16
-4 -11 -11 -18 -16 -15 -5 4 -9 1 -9 -5 0 -15 -26 -41 -34 -33 -3 4 -6 2 -6
-3 0 -6 -7 -19 -16 -30 -8 -10 -12 -13 -8 -5 5 9 3 12 -4 7 -7 -4 -12 -14 -12
-22 0 -8 -7 -14 -16 -14 -8 0 -13 -4 -9 -9 3 -5 -4 -12 -15 -16 -11 -3 -19
-12 -17 -18 1 -7 -4 -11 -10 -9 -7 1 -13 -2 -13 -6 0 -14 -36 -52 -43 -46 -3
3 -8 -4 -12 -15 -3 -12 -11 -19 -16 -16 -5 4 -9 2 -9 -4 0 -6 -17 -28 -37 -50
-52 -55 -65 -71 -57 -71 3 0 0 -7 -7 -16 -13 -16 -20 -35 -22 -66 -1 -10 -5
-18 -10 -18 -4 0 -5 -5 -2 -10 3 -6 1 -10 -6 -10 -9 0 -9 -4 1 -15 6 -8 8 -20
4 -27 -13 -20 -4 -91 15 -123 3 -5 7 -18 8 -28 2 -10 10 -25 17 -33 8 -8 18
-23 21 -34 3 -11 11 -20 16 -20 6 0 7 -5 4 -10 -3 -6 0 -10 7 -10 7 0 26 -13
41 -30 16 -16 35 -30 43 -30 8 0 14 -4 14 -10 0 -5 7 -10 15 -10 9 0 27 -7 40
-16 20 -13 25 -14 25 -3 0 10 2 11 8 2 4 -6 20 -10 35 -9 15 2 27 0 27 -5 0
-4 10 -6 23 -3 12 3 33 7 47 9 35 6 65 13 68 15 1 2 5 3 10 4 24 4 101 59 96
68 -4 7 -2 8 4 4 7 -4 12 -2 12 4 0 6 5 8 10 5 5 -3 10 -2 10 3 0 11 36 53 41
48 2 -2 15 11 29 30 14 18 33 36 43 40 9 3 15 9 12 14 -3 4 2 11 11 14 8 3 12
10 9 16 -3 5 0 7 9 4 9 -3 17 2 21 15 3 12 11 19 16 16 5 -4 9 -2 9 3 0 13 69
82 82 82 5 0 7 3 5 8 -5 9 29 42 36 35 3 -2 8 5 12 16 3 12 11 19 16 16 5 -4
9 -2 9 3 0 13 36 53 43 46 3 -3 8 4 12 15 3 12 10 19 14 16 5 -2 13 7 20 21 6
14 16 22 21 19 6 -3 10 1 10 9 0 8 5 18 12 22 7 4 8 3 4 -4 -4 -7 -5 -12 -1
-12 3 0 10 12 15 26 6 14 14 23 18 20 4 -2 17 9 27 25 11 16 28 32 38 35 9 3
16 8 14 12 -5 9 30 42 36 35 3 -2 8 5 12 16 3 12 11 19 16 16 5 -4 9 -2 9 3 0
13 36 53 43 46 3 -3 8 4 12 15 3 12 10 19 14 16 5 -2 13 7 20 21 6 14 16 22
21 19 6 -3 10 1 10 9 0 9 6 16 14 16 7 0 16 9 19 21 3 12 10 18 16 15 5 -4 12
3 16 14 4 11 10 18 15 15 5 -3 11 4 15 15 4 11 10 18 15 15 5 -3 11 3 14 12 3
10 19 27 35 38 16 10 28 22 26 25 -1 3 3 11 11 18 8 7 14 10 14 7 0 -3 8 3 18
13 11 9 17 20 15 25 -2 4 3 7 12 7 9 0 14 3 12 8 -6 9 19 33 27 25 3 -4 6 -1
6 6 0 15 21 38 35 37 6 -1 14 9 20 22 5 12 18 25 28 28 9 3 15 8 13 12 -2 4 2
13 10 20 8 7 14 10 14 6 0 -4 10 6 22 22 28 38 43 54 33 34 -5 -8 3 -4 16 10
14 14 24 27 23 29 -4 5 40 49 46 46 3 -1 13 6 23 17 9 10 14 18 10 18 -4 0 8
11 27 25 19 14 30 25 25 25 -4 0 2 9 15 20 13 11 28 20 33 20 6 0 8 3 4 6 -7
7 9 23 37 39 10 6 17 13 17 18 -2 9 22 36 29 32 3 -2 11 3 18 11 7 8 10 14 7
14 -2 0 3 9 12 20 10 11 23 20 31 20 7 0 10 5 7 10 -3 6 1 10 10 10 9 0 14 4
10 9 -3 5 4 13 16 16 11 4 18 9 15 12 -2 3 18 25 45 49 27 24 47 44 44 44 -4
0 15 18 40 40 25 22 43 40 39 40 -4 0 7 11 26 25 19 14 31 25 27 25 -4 0 1 8
11 18 9 11 20 17 23 15 4 -1 10 4 13 13 6 17 20 14 85 -14 20 -9 38 -16 41
-17 9 -3 44 -17 87 -36 23 -11 44 -19 46 -19 3 0 26 -10 53 -22 27 -11 50 -20
52 -19 1 1 15 -5 31 -13 42 -22 303 -129 309 -126 1 0 16 -6 32 -15 17 -8 44
-22 60 -31 17 -8 30 -13 30 -10 0 3 30 -9 68 -25 84 -38 88 -39 197 -84 131
-54 158 -66 179 -77 10 -5 26 -11 35 -13 9 -2 34 -11 56 -21 22 -10 42 -18 45
-19 3 -1 16 -7 30 -12 119 -52 177 -75 188 -76 6 0 12 -4 12 -9 0 -4 3 -7 8
-6 8 1 1 4 187 -75 77 -32 146 -59 153 -60 6 0 12 -5 12 -10 0 -6 3 -8 6 -5 3
4 31 -5 62 -19 99 -43 114 -50 232 -97 63 -26 124 -51 135 -56 11 -5 76 -32
145 -60 137 -56 143 -58 215 -90 28 -12 55 -23 60 -24 6 -2 28 -10 50 -20 50
-23 138 -23 188 -2 59 26 122 95 130 141 1 11 5 25 8 30 8 13 3 90 -6 112 -5
10 -9 21 -10 26 -2 4 -4 9 -5 12 -1 3 -3 8 -5 13 -3 12 -17 44 -38 92 -12 25
-21 47 -22 50 0 3 -4 11 -8 17 -5 7 -5 13 -1 13 4 0 -1 9 -11 20 -10 11 -15
20 -12 20 3 0 -4 24 -17 53 -23 53 -38 88 -41 97 -1 3 -6 16 -12 30 -6 14 -21
50 -33 80 -12 30 -28 69 -35 85 -8 17 -30 70 -50 118 -20 48 -41 100 -47 115
-6 15 -12 29 -13 32 -1 3 -10 25 -21 50 -10 25 -18 48 -16 53 1 4 -2 7 -6 7
-5 0 -14 19 -21 42 -12 38 -50 128 -72 170 -5 10 -9 25 -9 33 0 8 -5 15 -12
15 -6 0 -9 3 -6 6 3 3 -12 47 -34 97 -22 51 -41 101 -43 111 -3 11 -9 24 -15
30 -5 5 -10 18 -10 28 0 10 -5 18 -10 18 -6 0 -10 6 -9 13 1 6 -6 30 -15 52
-10 22 -24 54 -31 70 -7 17 -18 44 -25 60 -8 17 -14 32 -15 35 -3 10 -27 68
-68 165 -23 55 -42 102 -42 105 -1 3 -9 23 -19 45 -10 22 -27 63 -38 90 -11
28 -25 61 -31 75 -6 14 -11 27 -12 30 0 3 -10 26 -22 51 -11 26 -27 64 -34 85
-8 22 -18 42 -22 45 -5 3 -8 8 -7 10 3 8 -29 88 -55 139 -7 14 -13 27 -12 30
1 4 -40 108 -78 195 -32 75 -37 95 -22 95 5 0 8 3 5 6 -4 3 20 30 53 60 32 30
56 54 52 54 -4 0 8 11 27 25 19 14 30 25 26 25 -4 0 13 18 38 39 25 21 43 40
41 42 -10 11 90 73 118 74 18 0 38 4 45 8 7 5 12 3 12 -3 0 -8 6 -8 20 0 11 6
20 7 20 3 0 -4 21 -9 47 -11 26 -2 51 -6 57 -10 6 -3 22 -8 36 -10 13 -2 30
-8 37 -14 9 -7 13 -7 13 1 0 7 9 6 25 -5 14 -9 32 -14 40 -10 9 3 15 0 15 -8
0 -8 11 -13 28 -12 15 0 26 -5 25 -11 -1 -6 6 -9 17 -6 11 3 20 0 20 -6 0 -6
11 -11 25 -11 14 0 25 -4 25 -10 0 -5 9 -10 20 -10 11 0 20 -5 20 -11 0 -5 4
-8 9 -5 4 3 17 -1 27 -9 10 -8 26 -15 35 -15 9 0 22 -7 29 -15 6 -8 15 -14 18
-13 20 2 32 -3 27 -12 -3 -6 1 -7 9 -4 9 3 16 2 16 -4 0 -8 28 -20 60 -26 3
-1 10 -4 15 -7 6 -4 18 -5 28 -4 9 2 17 0 17 -4 0 -11 73 -10 88 2 8 6 12 6
12 -2 0 -9 5 -9 20 -1 11 6 25 8 30 5 6 -3 10 -1 10 6 0 7 3 9 7 6 3 -4 12 -2
20 5 7 6 16 8 19 5 3 -2 17 6 31 19 14 13 28 22 30 20 5 -5 123 113 123 123 0
4 12 13 26 19 14 7 22 17 19 22 -3 6 1 10 10 10 9 0 14 4 10 9 -3 5 4 12 15
16 11 3 20 10 20 14 0 14 37 51 44 44 3 -3 6 1 6 10 0 10 3 17 8 17 8 0 118
103 114 108 -1 1 1 3 6 4 4 1 21 19 38 40 18 20 33 36 35 35 2 -2 14 7 26 20
12 13 19 23 16 23 -4 0 7 10 24 23 16 12 31 26 31 30 2 13 61 65 67 59 3 -3 5
2 5 11 0 10 8 17 17 17 9 0 14 3 11 6 -8 7 28 44 42 44 6 0 10 5 10 10 0 6 50
60 111 120 61 61 107 110 103 110 -5 0 -1 5 9 11 9 5 17 17 17 24 0 8 3 15 8
15 4 0 12 11 19 25 6 14 7 23 3 20 -5 -3 -2 7 6 23 7 16 15 45 16 65 2 20 5
37 8 37 13 0 -1 237 -15 260 -3 6 -1 10 5 10 7 0 5 7 -4 16 -18 17 -21 28 -6
19 6 -3 10 -1 10 4 0 6 -5 11 -11 11 -5 0 -8 4 -4 9 3 5 1 12 -4 16 -6 3 -8
12 -4 20 3 8 1 15 -5 15 -6 0 -9 11 -7 25 1 14 -2 25 -7 25 -5 0 -8 6 -6 12 3
7 -2 19 -9 27 -8 7 -12 20 -9 28 4 8 1 11 -5 8 -6 -4 -9 -1 -8 6 1 8 -4 28
-11 44 -7 17 -13 33 -12 38 1 4 -3 7 -9 7 -5 0 -7 5 -4 10 3 6 1 10 -5 10 -6
0 -8 5 -5 10 3 6 1 10 -4 10 -6 0 -11 3 -10 8 2 15 -14 52 -22 52 -5 0 -9 6
-9 14 0 7 -7 19 -15 26 -8 7 -12 16 -9 21 3 5 0 9 -6 9 -6 0 -8 5 -5 10 3 6
-1 13 -9 16 -9 3 -16 12 -16 20 0 8 -4 14 -10 14 -5 0 -9 4 -7 8 2 8 -21 43
-55 84 -10 11 -15 25 -11 31 3 6 1 7 -5 3 -7 -4 -12 -2 -12 4 0 6 -18 29 -39
50 -22 22 -36 40 -33 40 4 1 -3 9 -15 19 -12 10 -20 21 -17 24 3 3 -4 8 -15
12 -12 3 -21 13 -21 21 0 8 -4 12 -10 9 -5 -3 -10 -1 -10 5 0 6 -20 29 -45 52
-24 23 -42 45 -39 49 3 5 -3 6 -12 2 -12 -4 -15 -3 -10 5 4 7 3 12 -2 12 -5 0
-28 17 -51 39 -22 21 -43 36 -46 33 -3 -3 -5 0 -5 6 0 7 -6 12 -13 12 -7 0
-23 10 -35 23 -27 29 -49 47 -58 47 -4 0 -19 10 -32 23 -14 12 -22 15 -18 7 5
-9 2 -8 -7 2 -8 10 -17 15 -20 11 -4 -3 -7 1 -7 11 0 9 -4 15 -9 11 -5 -3 -12
-1 -16 5 -3 5 -15 10 -26 10 -11 0 -18 4 -15 9 6 9 -50 36 -66 32 -5 0 -8 3
-8 8 0 9 -58 35 -72 32 -5 0 -8 4 -8 10 0 6 -7 8 -15 5 -9 -3 -18 0 -21 7 -2
7 -14 14 -27 14 -12 1 -23 7 -25 12 -2 5 -9 8 -17 5 -7 -3 -16 0 -20 5 -3 6
-11 9 -16 6 -5 -4 -9 -1 -9 5 0 6 -3 9 -7 7 -5 -3 -19 0 -33 5 -14 6 -38 12
-54 14 -16 2 -36 10 -45 17 -12 10 -13 9 -6 -3 7 -12 6 -13 -6 -4 -29 21 -287
26 -313 5 -9 -8 -16 -9 -21 -2 -4 7 -15 5 -31 -5 -13 -9 -24 -13 -24 -9 0 4
-6 2 -13 -4 -8 -6 -17 -8 -20 -4 -4 3 -7 0 -7 -7 0 -7 -3 -10 -6 -7 -4 4 -25
-8 -47 -26 -23 -17 -44 -32 -47 -32 -3 0 -4 -6 -4 -12 2 -12 -9 -17 -28 -14
-5 0 -8 -3 -8 -8 0 -13 -138 -150 -144 -143 -3 3 -6 1 -6 -5 0 -11 -95 -113
-106 -113 -3 0 -12 -7 -20 -15 -9 -8 -13 -15 -9 -15 3 0 0 -6 -7 -14 -7 -8
-16 -12 -19 -10 -3 2 -12 -8 -19 -21 -7 -14 -22 -27 -32 -31 -10 -3 -16 -10
-12 -15 3 -6 -3 -13 -15 -16 -12 -3 -21 -12 -21 -19 0 -8 -7 -14 -16 -14 -8 0
-13 -4 -10 -9 3 -5 -9 -18 -27 -30 -17 -11 -28 -21 -23 -21 6 0 -4 -11 -22
-23 -17 -13 -29 -27 -25 -30 3 -4 -1 -7 -11 -7 -9 0 -15 -4 -11 -9 3 -5 -4
-12 -14 -16 -11 -3 -23 -15 -26 -26 -4 -11 -9 -18 -12 -15 -4 3 -17 -9 -30
-27 -13 -17 -27 -32 -31 -32 -11 0 -52 -42 -52 -53 0 -6 -5 -14 -12 -18 -7 -5
-8 -3 -3 7 11 17 -80 -77 -119 -125 -16 -20 -33 -33 -37 -30 -5 3 -6 -2 -3
-10 3 -9 1 -16 -5 -16 -6 0 -11 -8 -11 -18 0 -10 -3 -22 -7 -26 -7 -6 -12 -24
-17 -56 -1 -9 -5 -20 -8 -25 -12 -21 6 -162 23 -179 5 -6 9 -18 9 -29 0 -10 5
-15 10 -12 9 5 15 -23 11 -47 0 -5 3 -8 8 -8 5 0 15 -16 22 -35 7 -19 17 -35
23 -35 5 0 6 -3 3 -7 -4 -3 -2 -12 3 -19 6 -6 13 -23 15 -35 3 -13 9 -25 15
-27 5 -2 10 -12 10 -22 0 -10 5 -22 11 -25 6 -4 8 -13 5 -21 -3 -9 1 -14 12
-15 10 0 12 -3 5 -6 -10 -3 -9 -11 2 -34 9 -16 12 -29 8 -29 -5 0 -2 -4 6 -9
7 -5 14 -20 14 -35 0 -14 4 -26 9 -26 5 0 6 -4 3 -10 -3 -5 -3 -10 2 -10 4 0
8 -10 9 -22 1 -13 5 -41 9 -63 4 -22 8 -48 7 -57 0 -10 4 -18 10 -18 7 0 7 -4
-1 -13 -8 -10 -7 -17 1 -25 9 -9 9 -12 -1 -12 -11 0 -11 -3 -1 -15 7 -8 8 -15
3 -15 -5 0 -9 -10 -8 -22 1 -13 -5 -32 -14 -42 -13 -16 -13 -18 -1 -12 8 4 -8
-15 -36 -43 -28 -27 -50 -52 -47 -54 2 -3 -3 -7 -11 -10 -10 -4 -20 7 -32 36
-10 23 -18 44 -19 47 0 3 -6 15 -13 26 -6 12 -8 24 -5 28 3 3 2 6 -4 6 -5 0
-15 19 -22 42 -7 22 -24 66 -38 97 -36 81 -47 109 -52 136 -2 6 -10 18 -18 28
-9 9 -12 17 -8 17 5 0 4 5 -3 12 -7 7 -12 18 -12 25 0 11 -38 101 -61 145 -5
10 -9 25 -9 33 0 8 -4 15 -8 15 -5 0 -9 6 -9 13 -1 10 -60 158 -93 232 -31 70
-50 119 -50 131 0 8 -4 14 -10 14 -5 0 -10 8 -10 18 0 10 -3 22 -7 26 -5 4 -8
11 -9 14 -1 9 -23 61 -41 95 -8 15 -11 27 -7 27 3 0 2 6 -3 13 -5 6 -20 39
-33 72 -13 33 -26 65 -30 70 -4 6 -13 28 -20 50 -7 22 -18 49 -23 60 -6 11
-12 22 -12 25 -2 8 -83 203 -110 265 -7 17 -30 73 -51 125 -20 52 -41 99 -45
104 -5 6 -9 18 -9 28 0 10 -4 18 -10 18 -6 0 -9 3 -9 8 1 4 0 9 -1 12 -1 3 -3
12 -5 20 -7 30 -79 195 -88 201 -5 3 -8 10 -8 15 3 31 -56 134 -77 134 -7 0
-10 5 -7 10 3 6 -1 10 -9 10 -9 0 -16 5 -16 10 0 6 -9 10 -19 10 -11 0 -22 4
-25 9 -8 13 -64 17 -118 10z m2402 -491 c0 9 5 10 18 3 13 -7 23 -6 31 2 8 8
14 8 19 2 9 -12 42 -12 61 -1 10 6 12 5 7 -2 -5 -8 5 -12 34 -12 23 0 39 -4
36 -8 -2 -4 5 -9 17 -9 44 -3 67 -7 67 -14 0 -6 58 -23 73 -20 4 0 7 -3 7 -8
0 -6 9 -8 20 -6 11 2 18 0 15 -6 -4 -5 0 -9 8 -9 8 0 20 -7 27 -15 7 -8 16
-12 21 -9 5 3 29 -6 53 -20 24 -14 46 -22 50 -19 3 3 6 2 6 -4 0 -6 14 -16 30
-23 17 -7 30 -17 30 -22 0 -5 4 -7 9 -3 5 3 21 -6 35 -20 14 -14 26 -23 26
-20 0 5 12 -3 45 -32 7 -7 18 -13 24 -13 6 0 11 -4 11 -10 0 -5 7 -10 15 -10
8 0 15 -7 15 -15 0 -8 9 -15 21 -15 12 0 17 -4 14 -11 -4 -6 2 -13 14 -16 11
-3 23 -14 26 -24 4 -10 11 -19 16 -19 13 0 49 -38 49 -52 0 -6 3 -8 6 -5 7 7
42 -29 71 -70 8 -13 19 -20 24 -18 5 3 11 -6 15 -20 3 -13 10 -23 14 -20 5 3
14 -8 21 -24 7 -16 17 -27 21 -25 4 3 8 -2 8 -10 0 -9 5 -16 10 -16 6 0 10 -5
10 -10 0 -6 9 -20 20 -32 11 -12 20 -28 20 -35 0 -8 5 -11 10 -8 6 3 10 -3 10
-14 0 -12 4 -21 8 -21 8 0 34 -45 36 -61 1 -3 9 -13 19 -23 20 -20 22 -31 5
-20 -7 5 -1 -8 13 -27 14 -18 25 -42 23 -52 -1 -9 2 -15 7 -11 8 5 13 -12 12
-43 0 -7 2 -12 6 -11 18 2 22 -4 11 -17 -10 -12 -10 -15 2 -15 8 0 15 -6 16
-12 3 -41 7 -58 13 -58 4 0 10 -7 13 -16 4 -10 2 -13 -7 -8 -6 4 -3 -3 8 -16
11 -13 14 -20 8 -16 -16 9 -16 6 2 -38 12 -28 12 -36 3 -36 -9 0 -10 -3 -2 -8
6 -4 10 -16 8 -27 -2 -11 2 -23 8 -26 9 -6 8 -12 -1 -23 -11 -13 -11 -16 0
-16 11 0 11 -2 -1 -10 -8 -5 -10 -10 -5 -10 11 0 12 -56 2 -67 -4 -3 -7 -17
-7 -30 0 -13 -4 -21 -10 -18 -5 3 -7 0 -4 -9 6 -16 -171 -203 -188 -198 -5 1
-7 -1 -4 -6 3 -5 -10 -22 -29 -37 -18 -16 -32 -33 -29 -37 5 -7 -10 -12 -29
-9 -4 0 -6 -3 -5 -7 4 -13 -174 -188 -186 -184 -6 2 -8 1 -4 -3 9 -10 -33 -55
-45 -48 -6 3 -7 2 -4 -4 7 -11 -28 -44 -38 -35 -4 4 -5 2 -3 -3 4 -13 -91
-111 -104 -107 -4 1 -7 -2 -6 -6 4 -12 -80 -91 -88 -83 -4 3 -4 1 -1 -5 7 -12
-28 -46 -38 -36 -4 4 -5 2 -3 -5 5 -17 -123 -135 -139 -129 -8 3 -11 1 -8 -4
4 -7 -5 -9 -25 -5 -24 4 -30 2 -24 -7 4 -7 -2 -5 -13 5 -11 9 -23 14 -26 10
-4 -3 -7 -1 -7 6 0 7 -4 9 -10 6 -5 -3 -10 -1 -10 4 0 6 -9 11 -20 11 -11 0
-20 5 -20 10 0 6 -9 10 -20 10 -11 0 -20 5 -20 10 0 6 -9 10 -20 10 -11 0 -20
5 -20 12 0 6 -3 8 -7 5 -3 -4 -17 0 -31 9 -13 8 -26 13 -29 10 -3 -3 -11 0
-17 7 -6 8 -37 22 -69 33 -32 10 -63 24 -68 31 -6 6 -17 9 -24 7 -7 -3 -24 0
-36 7 -13 6 -39 14 -58 16 -20 3 -38 9 -41 13 -3 4 -18 8 -35 8 -16 0 -31 5
-33 11 -3 9 -7 9 -18 0 -8 -6 -14 -7 -14 -2 0 10 -40 14 -153 17 -37 1 -70 -1
-72 -4 -2 -4 -18 -6 -35 -5 -16 1 -30 -3 -30 -8 0 -6 -3 -8 -6 -4 -4 3 -19 0
-34 -8 -15 -8 -30 -11 -34 -8 -3 4 -6 1 -6 -6 0 -7 -3 -10 -7 -8 -11 7 -33
-19 -25 -29 4 -4 2 -4 -4 -1 -6 4 -19 -2 -29 -13 -10 -11 -25 -20 -34 -20 -14
0 -14 -2 -1 -10 13 -8 12 -10 -2 -10 -10 0 -18 -7 -18 -17 0 -9 -3 -14 -6 -10
-3 3 -30 -19 -59 -48 -29 -30 -56 -51 -60 -47 -3 4 -5 2 -3 -4 3 -11 -227
-244 -242 -244 -6 0 -10 -6 -10 -12 0 -7 -8 -1 -18 15 -9 15 -25 30 -35 33 -9
3 -15 10 -12 15 4 5 -1 9 -9 9 -9 0 -16 7 -16 17 0 9 -3 14 -6 11 -3 -4 -19 8
-35 24 -24 26 -27 34 -16 46 10 13 9 14 -3 7 -8 -5 14 19 50 53 35 34 68 62
74 62 5 0 7 3 4 6 -7 7 111 124 125 124 5 0 7 7 4 14 -4 11 -1 13 11 9 9 -3
14 -3 10 1 -3 4 34 48 83 96 49 49 89 96 89 105 0 9 5 13 10 10 6 -3 10 2 10
12 0 10 7 31 15 46 9 18 10 25 2 20 -7 -4 -7 0 2 10 7 9 10 17 6 17 -4 0 -3 6
2 13 5 6 8 22 7 35 0 12 3 22 9 22 5 0 4 6 -2 14 -8 10 -9 16 -1 21 6 3 7 12
3 18 -11 17 -10 31 2 39 7 5 6 8 -1 8 -6 0 -12 21 -13 48 -1 26 -6 49 -12 50
-6 3 -6 8 1 17 8 9 8 15 0 20 -6 3 -8 11 -5 16 4 5 1 9 -5 9 -6 0 -8 5 -5 10
4 6 1 17 -5 25 -7 8 -10 22 -6 30 3 8 1 15 -4 15 -5 0 -7 9 -5 20 2 11 -1 20
-6 20 -6 0 -7 5 -4 10 3 6 1 10 -6 10 -7 0 -9 3 -6 7 4 3 1 13 -6 21 -8 11 -8
14 0 9 6 -4 3 10 -7 30 -10 21 -16 41 -14 44 2 4 -3 9 -11 13 -8 3 -12 12 -9
19 3 8 -1 21 -8 28 -7 8 -14 23 -16 33 -2 11 -10 29 -18 41 -8 12 -11 25 -7
28 3 4 1 7 -5 7 -7 0 -12 9 -12 20 0 11 -5 20 -11 20 -5 0 -7 5 -4 10 3 6 1
10 -5 10 -6 0 -8 5 -5 10 3 6 1 10 -4 10 -6 0 -11 9 -11 20 0 11 -4 20 -9 20
-5 0 -12 7 -15 16 -4 10 -2 13 7 9 6 -4 5 -1 -4 7 -9 7 -15 21 -13 31 1 9 -3
17 -9 17 -8 0 -8 3 1 9 7 4 12 12 11 17 -3 20 14 54 29 54 8 0 12 3 9 7 -10 9
14 34 26 26 5 -3 7 -2 4 4 -7 11 28 44 38 35 4 -4 5 -2 3 3 -4 14 93 111 107
107 5 -2 7 0 2 4 -9 9 22 44 40 44 7 0 12 3 11 8 -4 10 62 78 73 75 5 -2 8 0
6 5 -3 10 95 108 105 104 5 -1 7 2 6 8 -2 5 11 21 27 35 17 15 24 23 16 19 -9
-5 -12 -3 -7 4 4 7 13 12 20 12 7 0 25 15 41 34 16 19 34 32 39 29 6 -4 8 -3
4 2 -10 11 11 37 23 29 5 -3 8 -2 7 3 -4 11 94 109 104 106 5 -2 7 1 5 6 -3
11 65 77 76 73 4 -1 7 4 7 11 0 18 35 49 44 40 4 -5 6 -3 4 2 -8 26 96 95 135
89 9 -1 17 3 17 9 0 7 5 5 10 -3 7 -11 10 -11 10 -2z m-2452 -128 c13 -30 25
-59 26 -65 1 -5 10 -27 19 -49 9 -21 17 -40 17 -42 0 -2 10 -26 21 -52 12 -26
28 -63 36 -82 8 -19 21 -47 28 -61 11 -23 10 -29 -5 -42 -10 -8 -28 -18 -41
-22 -41 -13 -321 -159 -351 -184 -10 -8 -18 -11 -18 -8 0 7 -180 -101 -312
-189 -53 -35 -101 -64 -106 -64 -6 0 -12 -3 -14 -7 -5 -13 -86 -73 -97 -73 -6
0 -11 -4 -11 -10 0 -5 -4 -10 -10 -10 -10 0 -19 -7 -67 -50 -13 -11 -26 -20
-29 -20 -4 0 -21 -12 -39 -27 -36 -32 -52 -44 -115 -93 -46 -36 -78 -64 -145
-124 -21 -20 -43 -36 -48 -36 -4 0 -5 -4 -2 -10 3 -5 1 -10 -6 -10 -18 0 -263
-239 -414 -404 -44 -49 -93 -101 -109 -117 -16 -16 -26 -29 -23 -29 4 0 -7
-14 -23 -30 -17 -17 -30 -35 -30 -41 0 -6 -4 -7 -10 -4 -5 3 -10 0 -10 -9 0
-8 -4 -16 -8 -18 -7 -3 -93 -111 -137 -172 -11 -16 -25 -33 -30 -40 -6 -6 -26
-33 -45 -61 -19 -27 -37 -51 -42 -53 -4 -2 -8 -9 -8 -16 0 -7 -9 -21 -20 -31
-11 -10 -17 -22 -14 -26 3 -5 1 -9 -3 -9 -5 0 -19 -18 -33 -40 -14 -22 -28
-40 -33 -40 -4 0 -5 -4 -2 -10 3 -6 1 -10 -5 -10 -6 0 -9 -4 -6 -9 4 -5 2 -11
-2 -13 -10 -4 -120 -178 -145 -228 -6 -14 -14 -27 -17 -30 -3 -3 -25 -43 -49
-90 -24 -47 -50 -92 -58 -101 -7 -9 -10 -19 -6 -22 3 -4 1 -7 -5 -7 -7 0 -11
-3 -10 -7 1 -5 -9 -28 -22 -53 -13 -25 -25 -47 -25 -50 -1 -3 -10 -23 -20 -45
-10 -22 -17 -43 -17 -47 4 -15 -29 -7 -115 28 -49 20 -92 39 -98 42 -5 4 -12
7 -15 7 -5 0 -64 24 -115 46 -11 5 -45 19 -76 31 -31 13 -57 26 -57 30 -1 4 9
28 23 52 14 25 25 50 25 57 0 7 6 20 14 28 8 9 16 23 18 31 2 8 5 17 8 20 8 8
51 99 50 105 0 3 6 13 15 21 8 9 13 19 10 24 -3 5 -1 10 3 12 5 1 28 39 51 83
24 44 49 87 56 95 7 8 16 25 19 38 4 12 12 22 17 22 5 0 9 9 9 19 0 11 4 21 9
23 5 2 17 17 27 34 11 18 34 58 53 90 19 33 37 61 41 64 3 3 17 23 30 45 13
22 26 42 29 45 14 13 51 70 51 80 0 5 5 10 10 10 6 0 15 11 20 25 5 14 17 28
25 31 8 4 15 11 15 16 0 12 56 87 79 106 8 6 11 12 6 12 -5 0 0 10 12 23 41
41 153 187 153 199 0 6 3 9 6 5 3 -3 27 20 52 51 25 31 63 74 84 95 21 21 38
40 38 43 0 3 35 42 79 85 43 43 77 79 76 79 -2 0 18 22 43 48 26 26 48 47 50
46 1 0 40 36 86 80 105 103 227 215 230 213 1 -1 27 19 58 46 30 26 88 73 129
104 41 31 111 85 157 120 45 35 82 61 82 58 0 -3 8 3 18 13 30 27 55 46 85 61
15 8 27 18 27 23 0 4 4 8 8 8 5 0 49 26 98 58 49 31 98 62 109 69 56 34 183
109 205 121 14 7 48 26 75 41 116 66 145 80 145 73 0 -4 4 -2 8 4 8 13 184
100 195 96 4 -1 7 2 7 7 0 15 53 29 65 17 5 -6 20 -36 33 -66z m342 -835 c0
-8 4 -15 8 -15 5 0 9 -7 9 -15 0 -9 11 -41 25 -73 14 -31 34 -75 44 -97 9 -22
18 -45 20 -51 1 -5 14 -37 29 -70 15 -32 28 -63 29 -69 2 -5 10 -27 19 -49 9
-21 17 -40 17 -42 0 -4 28 -69 59 -134 9 -19 16 -39 17 -45 1 -5 9 -28 19 -50
18 -42 37 -86 40 -95 4 -11 19 -47 36 -85 9 -22 32 -76 49 -120 17 -44 36 -86
42 -92 6 -7 8 -13 4 -13 -4 0 1 -14 10 -31 8 -17 17 -40 20 -52 2 -11 9 -24
16 -29 7 -4 10 -8 6 -8 -3 0 11 -40 32 -90 21 -49 36 -90 34 -90 -2 0 3 -11
11 -24 15 -23 15 -25 -5 -31 -11 -3 -18 -10 -15 -15 3 -5 -4 -12 -16 -15 -11
-4 -18 -9 -15 -13 4 -3 -6 -14 -21 -24 -16 -10 -24 -18 -20 -18 5 0 -5 -11
-21 -25 -37 -31 -49 -32 -47 -2 5 70 -51 197 -120 270 -25 27 -45 45 -45 40 0
-4 -5 0 -11 10 -5 9 -17 17 -24 17 -8 0 -15 4 -15 9 0 8 -37 24 -52 22 -5 -1
-8 3 -8 7 0 5 -6 9 -12 10 -7 0 -24 3 -38 7 -14 4 -43 9 -65 10 -22 2 -42 4
-45 6 -3 1 -9 0 -15 -1 -5 -1 -28 -4 -50 -6 -22 -2 -51 -8 -65 -13 -14 -5 -34
-13 -45 -17 -11 -4 -23 -6 -27 -6 -5 1 -8 -3 -8 -8 0 -6 -7 -10 -15 -10 -8 0
-15 -4 -15 -10 0 -5 -6 -10 -13 -10 -19 0 -108 -97 -133 -145 -61 -114 -72
-233 -32 -355 12 -39 26 -70 30 -70 4 0 8 -7 8 -15 0 -8 5 -15 10 -15 6 0 10
-7 10 -15 0 -8 5 -15 10 -15 6 0 10 -8 10 -17 0 -9 2 -14 5 -11 3 3 26 -14 52
-38 25 -24 50 -41 55 -38 4 3 8 2 8 -3 0 -14 102 -52 150 -56 40 -3 89 -26 57
-27 -10 0 -16 -3 -14 -7 3 -5 -1 -14 -9 -21 -8 -7 -14 -9 -14 -5 -1 4 -8 -4
-16 -19 -8 -16 -22 -28 -30 -28 -8 0 -13 -3 -11 -7 3 -5 -1 -14 -9 -21 -8 -7
-14 -9 -14 -5 -1 4 -8 -4 -16 -19 -8 -16 -22 -28 -30 -28 -8 0 -13 -4 -9 -9 3
-5 -4 -13 -16 -16 -11 -4 -18 -9 -16 -12 6 -5 -25 -41 -33 -38 -3 1 -15 -9
-27 -22 -12 -13 -20 -23 -17 -23 3 0 -1 -6 -8 -14 -7 -8 -16 -12 -20 -9 -5 2
-8 -3 -8 -12 0 -8 -11 -20 -25 -27 -13 -6 -22 -14 -20 -19 3 -4 -4 -10 -15
-14 -11 -4 -19 -9 -17 -13 2 -4 -4 -15 -15 -24 -10 -10 -18 -15 -18 -10 -1 4
-7 -4 -15 -18 -7 -14 -17 -25 -22 -25 -4 0 -7 -3 -6 -7 2 -4 -6 -10 -17 -13
-11 -4 -20 -13 -20 -21 0 -8 -7 -14 -15 -14 -8 0 -14 -6 -13 -12 2 -7 -3 -12
-9 -10 -7 1 -13 -5 -13 -13 0 -8 -12 -21 -27 -29 -16 -8 -24 -15 -20 -16 4 0
2 -6 -5 -14 -7 -8 -16 -12 -20 -9 -5 2 -8 -3 -8 -12 0 -8 -11 -20 -25 -27 -13
-6 -22 -14 -20 -19 3 -4 -4 -11 -16 -14 -11 -4 -18 -9 -16 -12 7 -7 -26 -41
-35 -36 -5 2 -8 -3 -8 -11 0 -8 -5 -18 -12 -22 -7 -5 -8 -2 -3 7 4 8 -1 5 -12
-6 -11 -11 -19 -21 -18 -23 5 -6 -30 -39 -37 -35 -4 2 -9 -6 -13 -17 -4 -11
-11 -18 -16 -15 -5 4 -9 -1 -9 -10 0 -8 -11 -20 -25 -27 -13 -6 -23 -14 -21
-17 1 -3 -5 -14 -16 -23 -10 -10 -18 -15 -18 -10 0 4 -9 -6 -20 -23 -11 -16
-20 -25 -20 -20 -1 6 -8 -2 -16 -17 -8 -16 -22 -28 -31 -28 -9 0 -14 -3 -10
-6 3 -4 -1 -13 -10 -22 -14 -14 -20 -14 -67 2 -28 10 -79 31 -114 47 -34 16
-68 29 -75 29 -7 0 -17 4 -22 8 -6 5 -30 17 -55 27 -25 9 -56 22 -70 28 -14 6
-27 11 -30 12 -3 1 -25 10 -50 21 -25 10 -48 18 -52 16 -5 -1 -8 2 -8 7 0 5
-12 12 -27 16 -15 3 -43 13 -62 22 -20 9 -39 15 -43 15 -5 -1 -8 3 -8 10 0 6
-3 9 -6 5 -4 -3 -24 3 -45 13 -21 11 -45 20 -54 20 -8 0 -15 4 -15 8 0 5 -6 9
-12 10 -12 0 -94 33 -178 70 -19 8 -37 16 -40 17 -3 1 -16 6 -30 12 -14 6 -68
28 -120 49 -52 21 -97 40 -100 43 -3 3 -14 8 -25 9 -11 2 -24 7 -30 11 -5 4
-37 18 -70 31 -88 34 -88 35 -51 110 73 148 128 250 137 255 5 4 9 15 9 26 0
10 4 19 9 19 5 0 14 14 21 30 7 17 16 30 21 30 5 0 8 3 7 8 -2 7 80 151 92
162 3 3 26 36 50 75 24 38 49 76 57 83 7 7 13 17 13 22 0 5 6 15 13 22 6 7 28
36 46 63 19 28 41 54 48 58 7 4 13 13 13 18 0 11 109 152 122 157 4 2 8 11 8
19 0 9 3 13 7 9 4 -3 12 2 17 13 12 20 110 134 163 188 18 18 31 33 29 33 -4
0 202 210 208 211 2 1 40 36 83 78 84 80 101 95 198 176 33 28 65 55 71 60 7
6 24 19 40 30 15 11 33 26 40 33 7 6 15 12 19 12 3 0 20 13 38 30 18 16 35 30
39 30 4 0 13 6 20 13 7 7 90 64 183 125 94 62 176 117 183 123 6 5 12 7 12 3
0 -4 8 0 18 8 15 13 76 50 180 109 17 10 32 16 32 13 0 -2 6 0 13 6 14 13 258
139 270 140 4 0 7 -7 7 -15z m640 -1776 c0 -5 5 -7 10 -4 6 3 10 -2 10 -11 0
-10 3 -14 6 -11 4 3 19 -7 34 -23 15 -16 31 -26 35 -22 5 4 5 2 2 -5 -4 -6 5
-21 20 -33 15 -11 28 -29 30 -39 3 -19 -49 -81 -67 -81 -6 0 -10 -5 -10 -11 0
-15 -26 -39 -34 -32 -3 4 -6 1 -6 -5 0 -15 -107 -122 -114 -114 -3 3 -6 0 -6
-6 0 -6 -15 -27 -34 -46 -19 -19 -37 -31 -40 -28 -3 3 -6 -1 -6 -10 0 -8 -11
-21 -25 -28 -13 -7 -22 -17 -19 -21 3 -5 -6 -14 -20 -21 -14 -6 -26 -15 -26
-20 0 -13 -138 -147 -145 -140 -3 3 -5 0 -5 -6 0 -15 -67 -82 -74 -74 -3 3 -6
1 -6 -5 0 -15 -66 -83 -80 -83 -7 0 -9 -7 -6 -16 3 -8 2 -12 -4 -9 -5 3 -15
-3 -22 -15 -7 -11 -19 -20 -27 -20 -8 0 -12 -3 -9 -6 7 -7 -98 -114 -113 -114
-5 0 -7 -5 -4 -11 4 -6 -2 -13 -13 -16 -11 -2 -25 -16 -31 -29 -6 -14 -15 -23
-20 -20 -4 3 -14 -6 -21 -19 -7 -14 -20 -25 -28 -25 -9 0 -13 -3 -10 -6 8 -7
-59 -74 -74 -74 -6 0 -9 -3 -6 -6 7 -7 -98 -114 -113 -114 -5 0 -7 -5 -4 -11
4 -6 -2 -13 -13 -16 -11 -2 -25 -16 -31 -29 -6 -14 -15 -23 -20 -20 -4 3 -14
-6 -21 -19 -7 -14 -20 -25 -28 -25 -9 0 -13 -3 -10 -6 7 -6 -69 -84 -83 -84
-5 0 -9 -4 -9 -9 0 -13 -128 -140 -135 -133 -3 3 -5 -2 -5 -11 0 -8 -9 -18
-20 -22 -11 -3 -19 -12 -17 -18 1 -7 -4 -11 -10 -9 -7 1 -13 -3 -13 -9 0 -13
-89 -99 -103 -99 -6 0 -8 -3 -5 -6 7 -7 -98 -114 -113 -114 -5 0 -7 -5 -4 -11
4 -6 -2 -13 -13 -16 -11 -2 -25 -16 -31 -29 -6 -14 -15 -23 -20 -20 -4 3 -14
-6 -21 -19 -7 -14 -20 -25 -28 -25 -9 0 -13 -3 -10 -6 8 -7 -75 -92 -84 -87
-5 2 -8 -2 -8 -10 0 -7 -11 -20 -25 -27 -13 -7 -22 -17 -19 -21 3 -5 -6 -14
-20 -20 -13 -6 -27 -20 -29 -31 -3 -11 -10 -17 -16 -13 -6 3 -11 1 -11 -4 0
-15 -107 -120 -114 -113 -3 3 -6 -1 -6 -9 0 -8 -9 -20 -20 -27 -12 -7 -18 -17
-15 -22 3 -6 -1 -7 -9 -4 -9 3 -16 1 -16 -6 0 -14 -68 -80 -83 -80 -6 0 -8 -3
-5 -6 8 -7 -59 -74 -74 -74 -6 0 -9 -3 -6 -6 8 -7 -115 -132 -124 -127 -5 2
-8 -1 -8 -6 0 -15 -107 -120 -114 -113 -3 3 -6 0 -6 -6 0 -6 -15 -27 -34 -46
-19 -19 -37 -31 -40 -28 -3 3 -6 0 -6 -6 0 -6 -19 -29 -42 -52 -30 -28 -44
-36 -50 -27 -4 6 -8 8 -8 4 0 -11 -30 19 -30 30 0 4 -13 17 -30 28 -16 11 -35
30 -41 42 -7 13 -18 23 -25 23 -30 0 -20 32 26 78 27 27 51 47 54 44 4 -3 6 1
6 8 0 12 45 60 56 59 3 0 15 12 27 28 20 25 47 52 94 94 10 9 33 33 52 53 19
20 38 36 42 36 5 0 9 7 9 15 0 8 8 15 17 15 9 0 14 3 11 6 -7 6 112 124 124
124 4 0 8 7 8 15 0 8 8 15 17 15 9 0 14 2 11 5 -7 7 55 73 63 69 4 -2 14 6 22
19 26 39 54 67 61 60 3 -3 6 -1 6 5 0 14 87 101 95 94 3 -3 5 2 5 11 0 10 6
17 13 17 6 0 21 13 31 28 11 16 32 37 47 48 15 10 34 29 40 41 7 13 19 23 27
23 9 0 13 3 9 6 -7 7 3 18 48 53 17 12 30 26 30 29 1 12 66 72 77 72 6 0 8 3
5 6 -7 7 21 35 60 61 13 8 21 18 19 22 -4 8 62 70 69 63 3 -3 5 2 5 11 0 10 6
17 13 17 6 0 21 14 32 30 11 16 26 30 33 30 7 0 11 3 9 8 -5 9 60 71 68 64 3
-3 5 2 5 11 0 10 7 17 15 17 8 0 15 4 15 9 0 4 16 23 36 42 20 19 44 42 53 53
9 10 35 37 58 59 23 23 40 45 37 49 -3 4 1 5 9 2 9 -3 17 3 20 16 3 12 10 19
16 15 6 -3 11 -2 11 2 0 12 86 100 116 120 13 8 22 18 20 22 -4 8 62 70 69 63
3 -3 5 2 5 11 0 10 7 17 15 17 8 0 15 4 15 8 0 5 14 22 31 38 17 16 40 40 52
53 48 51 93 94 114 108 13 8 21 18 19 22 -4 8 62 70 69 63 3 -3 5 2 5 11 0 10
7 17 15 17 8 0 15 4 15 8 0 12 118 131 124 124 3 -3 6 2 6 11 0 10 7 17 15 17
8 0 15 4 15 9 0 4 16 23 36 42 20 19 44 42 53 52 43 48 69 74 96 95 17 13 30
29 30 35 1 7 6 11 12 10 7 -2 15 6 18 17 4 11 13 20 22 20 10 0 13 6 9 16 -3
8 -2 13 2 10 4 -3 26 14 49 37 22 23 49 49 59 58 11 9 42 41 69 72 50 56 65
66 65 46z m270 -411 c0 -5 11 -34 25 -64 14 -30 25 -60 25 -67 0 -7 4 -17 8
-22 5 -6 17 -30 27 -55 9 -25 22 -56 28 -70 6 -14 11 -27 12 -30 4 -11 19 -47
36 -86 10 -22 28 -65 39 -95 26 -66 49 -118 61 -141 5 -10 9 -25 9 -33 0 -8 4
-15 8 -15 5 0 9 -6 9 -12 1 -16 98 -253 120 -293 10 -16 16 -31 15 -33 -2 -1
6 -23 18 -48 11 -26 20 -49 20 -53 1 -3 9 -24 20 -46 11 -22 19 -43 20 -46 0
-4 8 -24 17 -45 9 -22 16 -42 15 -46 -1 -5 3 -8 8 -8 6 0 10 -8 10 -18 0 -10
14 -46 30 -80 17 -34 30 -64 30 -67 0 -2 5 -16 12 -32 6 -15 12 -30 13 -33 1
-3 7 -17 13 -32 33 -81 82 -198 97 -233 10 -22 17 -41 16 -43 -1 -1 5 -15 13
-31 9 -16 12 -31 9 -35 -4 -3 -1 -6 5 -6 7 0 12 -4 12 -9 0 -5 5 -22 12 -38 6
-15 12 -30 13 -33 4 -13 20 -50 41 -98 28 -60 32 -91 11 -73 -8 6 -17 8 -20 4
-4 -3 -7 -1 -7 6 0 7 -4 9 -10 6 -5 -3 -10 -1 -10 4 0 6 -10 11 -23 11 -13 0
-27 4 -32 8 -6 5 -30 17 -55 26 -25 10 -58 24 -75 31 -16 8 -86 37 -155 65
-69 28 -134 55 -145 60 -28 12 -59 22 -64 20 -2 -1 -7 2 -10 7 -3 4 -44 23
-91 42 -78 31 -178 72 -335 138 -33 13 -76 32 -95 41 -19 9 -41 17 -48 18 -8
1 -28 9 -45 18 -53 25 -92 39 -99 38 -5 -1 -8 2 -8 6 0 5 -6 9 -13 9 -7 0 -33
9 -58 20 -44 21 -179 77 -189 79 -5 1 -65 26 -105 44 -16 7 -161 67 -292 121
-13 5 -33 13 -45 19 -13 5 -48 20 -79 32 -31 13 -56 28 -56 33 0 6 14 20 30
33 17 12 28 22 25 22 -3 0 13 19 36 43 22 23 43 41 45 40 2 -1 16 13 31 32 15
19 30 32 33 29 3 -3 8 4 12 15 3 12 10 19 15 16 5 -3 12 4 15 16 4 11 9 18 12
15 3 -3 21 13 39 35 19 23 34 37 34 33 0 -4 11 7 25 26 14 19 25 31 25 28 0
-8 47 38 83 82 15 17 27 28 27 24 0 -4 10 6 23 22 33 46 50 33 26 -20 -105
-238 47 -529 311 -594 39 -9 154 -9 183 0 17 5 40 10 49 10 10 -1 20 4 23 9 4
5 11 7 16 4 5 -4 9 -2 9 3 0 8 43 26 46 19 0 -1 7 5 16 13 8 8 28 27 44 41 33
30 94 96 95 104 0 2 8 24 19 47 27 63 33 93 33 188 0 67 -5 99 -24 148 -13 34
-27 62 -31 62 -5 0 -8 6 -8 14 0 18 -113 133 -140 141 -11 3 -20 11 -20 16 0
5 -7 9 -16 9 -8 0 -25 5 -37 12 -12 6 -29 13 -37 15 -8 1 -28 5 -45 8 -50 10
-154 7 -185 -5 -3 -1 -9 -2 -14 -1 -4 1 -14 -4 -22 -10 -8 -6 -14 -9 -14 -5 0
3 -23 -8 -50 -24 -49 -29 -50 -29 -33 -6 10 13 21 22 25 20 4 -2 9 5 13 16 4
11 10 18 15 15 5 -3 11 4 15 15 4 11 10 18 15 15 5 -3 12 4 15 16 4 11 9 18
13 15 3 -4 14 6 24 21 10 16 18 24 18 20 0 -5 18 13 40 38 22 25 40 43 40 39
0 -4 13 9 29 29 15 20 31 34 34 31 3 -3 8 4 12 15 3 12 10 19 15 16 5 -3 12 4
15 16 4 11 9 18 13 15 3 -4 14 6 24 21 10 16 18 24 18 19 0 -5 13 7 29 27 15
20 31 34 34 31 3 -3 8 4 12 15 3 12 10 19 15 16 5 -3 11 4 15 15 4 11 11 18
16 15 5 -4 9 1 9 10 0 9 4 14 9 10 5 -3 12 3 15 13 6 19 36 27 36 10z m-712
-698 c-12 -19 -28 -27 -28 -14 0 6 30 33 38 34 1 0 -3 -9 -10 -20z m-2703
-2030 c-3 -5 1 -10 10 -10 9 0 13 -4 10 -10 -3 -5 1 -10 9 -10 8 0 18 -9 21
-20 4 -11 10 -18 14 -16 9 6 41 -30 41 -45 0 -5 3 -8 8 -6 4 2 18 -6 32 -19
13 -13 19 -24 12 -24 -6 0 -12 -4 -12 -10 0 -14 -37 -50 -44 -42 -3 3 -6 -1
-6 -10 0 -8 -11 -21 -25 -28 -13 -7 -22 -17 -19 -21 3 -5 -6 -14 -20 -21 -14
-6 -26 -15 -26 -20 0 -12 -38 -48 -51 -48 -5 0 -8 -3 -6 -7 2 -5 -4 -16 -14
-25 -17 -16 -21 -13 -81 44 -35 33 -62 65 -61 69 2 5 -4 9 -13 9 -8 0 -13 4
-9 9 3 5 -2 11 -10 13 -11 2 2 22 44 65 33 33 62 59 65 55 3 -3 6 2 6 11 0 10
6 17 13 17 6 0 21 14 32 30 11 16 26 30 33 30 7 0 10 5 7 10 -3 6 1 10 10 10
9 0 14 4 11 9 -4 5 0 12 6 14 19 8 20 8 13 -3z m-403 -430 c5 0 16 -7 24 -15
9 -8 13 -15 9 -15 -4 0 8 -12 27 -27 50 -42 58 -50 51 -57 -4 -3 1 -6 11 -6 9
0 15 -4 12 -9 -4 -5 -1 -11 5 -13 12 -4 -86 -108 -103 -108 -6 0 -9 -3 -6 -6
8 -7 -34 -50 -44 -47 -5 2 -8 -2 -8 -7 0 -6 -7 -10 -16 -10 -8 0 -13 -3 -10
-8 8 -13 -64 -5 -81 9 -12 10 -14 10 -9 2 5 -9 2 -11 -8 -7 -8 3 -18 14 -21
25 -4 11 -11 17 -16 14 -5 -4 -9 3 -9 14 0 12 -4 21 -9 21 -11 0 -7 46 7 80
13 33 175 196 180 181 2 -6 8 -11 14 -11z"/>
<path d="M6430 6911 c0 -8 -7 -10 -19 -6 -13 4 -29 -5 -55 -31 -20 -20 -35
-39 -32 -41 3 -3 1 -15 -4 -28 -5 -13 -6 -26 -2 -30 4 -4 8 -11 8 -16 1 -5 2
-13 3 -18 1 -11 45 -56 57 -58 5 -1 41 -16 79 -34 39 -18 73 -32 78 -31 4 1 7
-4 7 -12 0 -9 7 -12 20 -9 14 4 20 0 20 -11 0 -10 4 -15 9 -11 5 3 15 0 23 -7
7 -7 25 -19 40 -27 15 -8 25 -17 23 -21 -2 -4 11 -14 30 -23 19 -9 35 -21 35
-26 0 -5 9 -13 20 -16 11 -3 20 -13 20 -21 0 -8 3 -14 8 -14 4 0 22 -14 41
-30 18 -17 39 -31 45 -32 31 -4 96 -3 96 3 0 3 11 12 25 19 13 7 22 16 20 21
-3 4 0 9 5 11 18 6 24 77 9 106 -13 26 -93 112 -103 112 -3 0 -19 12 -35 28
-47 43 -60 52 -102 76 -21 13 -37 25 -34 28 3 2 -11 11 -30 18 -19 8 -35 17
-35 22 0 4 -7 8 -15 8 -8 0 -15 6 -15 13 0 9 -2 9 -9 -1 -7 -11 -9 -10 -15 3
-3 9 -10 13 -16 10 -5 -3 -10 -1 -10 5 0 7 -7 10 -15 6 -9 -3 -15 0 -15 9 0 8
-8 12 -20 10 -11 -2 -20 0 -20 4 0 8 -76 41 -93 41 -5 0 -5 -6 -2 -12 4 -7 -1
-4 -9 6 -9 12 -16 14 -16 7z"/>
<path d="M5963 6665 c1 -5 -2 -9 -8 -10 -16 0 -56 -31 -49 -37 3 -4 -4 -9 -15
-13 -12 -3 -19 -11 -16 -16 4 -5 2 -9 -3 -9 -14 0 -52 -36 -45 -44 3 -3 -1 -6
-11 -6 -9 0 -21 -11 -28 -25 -6 -13 -15 -22 -19 -19 -5 3 -13 -6 -19 -20 -5
-14 -15 -26 -21 -26 -7 0 -10 -3 -6 -6 3 -3 2 -17 -3 -30 -6 -16 -6 -24 1 -24
6 0 8 -4 4 -9 -7 -12 15 -61 27 -61 5 0 6 -5 2 -12 -4 -6 -3 -8 3 -5 6 4 16 0
23 -8 17 -20 94 -20 110 0 7 8 16 15 21 15 13 0 48 37 42 44 -4 3 -1 6 5 6 19
0 146 135 159 169 7 21 8 31 1 31 -6 0 -5 6 2 15 9 11 9 15 1 15 -7 0 -10 4
-6 9 3 5 -2 16 -10 24 -8 9 -15 20 -15 26 0 10 -14 15 -32 12 -5 0 -8 3 -8 8
0 5 -20 11 -44 12 -25 2 -44 0 -43 -6z"/>
<path d="M2657 4484 c-1 -2 -18 -6 -37 -9 -44 -7 -139 -44 -164 -65 -74 -59
-110 -100 -142 -164 -19 -40 -36 -83 -38 -97 -1 -14 -5 -30 -9 -35 -7 -12 -2
-158 6 -171 3 -5 8 -22 11 -38 3 -16 11 -32 18 -37 7 -4 9 -8 5 -8 -11 0 25
-60 36 -60 4 0 6 -4 3 -9 -7 -11 110 -121 130 -121 8 0 14 -4 14 -9 0 -18 120
-51 200 -55 75 -4 240 41 240 65 0 5 6 9 13 9 19 0 115 99 141 147 40 70 55
138 52 232 -4 88 -5 97 -23 141 -6 14 -12 30 -14 35 -12 31 -76 116 -91 121
-10 3 -18 11 -18 17 0 21 -136 92 -195 102 -45 7 -134 13 -138 9z"/>
</g>
</svg>
